<?xml version="1.0" encoding="iso-8859-1"?>
<!-- Generator: Adobe Illustrator 19.0.0, SVG Export Plug-In . SVG Version: 6.00 Build 0)  -->
<svg version="1.1" id="Layer_1" xmlns="http://www.w3.org/2000/svg" xmlns:xlink="http://www.w3.org/1999/xlink" x="0px" y="0px"
	 viewBox="0 0 512 512" style="enable-background:new 0 0 512 512;" xml:space="preserve">
<g>
	<polygon style="fill:#099DD1;" points="397.309,351.757 145.536,351.757 145.536,103.038 383.727,103.038 503.652,103.038 
		503.652,123.263 503.652,351.757 444.829,351.757 	"/>
	<polygon style="fill:#099DD1;" points="145.536,103.038 285.493,214.291 362.74,214.29 503.652,103.038 	"/>
</g>
<rect x="109.034" y="160.245" style="fill:#00ABE0;" width="358.111" height="248.721"/>
<path style="fill:#099DD1;" d="M467.15,160.243v30.691l-125.984,99.465c-4.248,3.361-9.504,5.19-14.924,5.19h-77.249
	c-5.442,0-10.731-1.85-14.989-5.234L109.038,191.01v-30.768L467.15,160.243L467.15,160.243z"/>
<polygon style="fill:#00ABE0;" points="109.038,160.243 248.994,271.496 326.242,271.495 467.154,160.243 "/>
<rect x="143.238" y="331.253" style="fill:#EFEFEF;" width="41.082" height="41.003"/>
<path d="M503.652,94.69H145.536c-4.614,0-8.348,3.76-8.348,8.348v48.857c-28.173,0-28.242-0.036-29.055,0.051
	c-4.245,0.461-7.443,4.06-7.443,8.297v248.72c0,4.611,3.736,8.348,8.348,8.348h251.773c4.611,0,8.348-3.736,8.348-8.348
	c0-4.611-3.736-8.348-8.348-8.348H117.386V177.542L243.8,278.029c1.477,1.174,3.308,1.813,5.195,1.813l77.246-0.001
	c1.878,0,3.7-0.632,5.172-1.795l127.392-100.578v223.145h-48.735c-4.611,0-8.348,3.736-8.348,8.348c0,4.611,3.736,8.348,8.348,8.348
	h57.082c4.611,0,8.348-3.736,8.348-8.348v-48.857h28.151c4.611,0,8.348-3.736,8.348-8.348V103.038
	C512,98.441,508.253,94.69,503.652,94.69z M220.414,151.895l-50.961-40.509h310.154l-51.308,40.509H220.414z M153.884,120.338
	l39.699,31.557h-39.699V120.338z M323.344,263.147l-71.435,0.001L132.954,168.59h310.154L323.344,263.147z M475.502,343.41V160.243
	c0-4.452-3.584-8.298-8.271-8.344c-0.026,0-0.051-0.003-0.077-0.003h-11.913l40.063-31.629v223.145h-19.802V343.41z"/>
<path d="M68.861,212.011H34.14c-4.611,0-8.348,3.736-8.348,8.348c0,4.611,3.736,8.348,8.348,8.348h34.72
	c4.611,0,8.348-3.736,8.348-8.348C77.208,215.748,73.472,212.011,68.861,212.011z"/>
<path d="M68.861,347.935H34.14c-4.611,0-8.348,3.736-8.348,8.348c0,4.611,3.736,8.348,8.348,8.348h34.72
	c4.611,0,8.348-3.736,8.348-8.348C77.208,351.672,73.472,347.935,68.861,347.935z"/>
<path d="M68.861,258.377H8.348c-4.611,0-8.348,3.736-8.348,8.348c0,4.611,3.736,8.348,8.348,8.348h60.513
	c4.611,0,8.348-3.736,8.348-8.348C77.208,262.114,73.472,258.377,68.861,258.377z"/>
<path d="M68.861,300.811H8.348c-4.611,0-8.348,3.736-8.348,8.348c0,4.611,3.736,8.348,8.348,8.348h60.513
	c4.611,0,8.348-3.736,8.348-8.348C77.208,304.548,73.472,300.811,68.861,300.811z"/>
<path d="M143.234,322.907c-4.611,0-8.348,3.736-8.348,8.348v41.005c0,4.611,3.736,8.348,8.348,8.348h41.082
	c4.611,0,8.348-3.736,8.348-8.348v-41.005c0-4.611-3.736-8.348-8.348-8.348H143.234z M175.969,363.912h-24.387v-24.309h24.387
	V363.912z"/>
<path d="M212.232,342.758h45.823c4.611,0,8.348-3.736,8.348-8.348c0-4.611-3.736-8.348-8.348-8.348h-45.823
	c-4.611,0-8.348,3.736-8.348,8.348C203.884,339.022,207.62,342.758,212.232,342.758z"/>
<path d="M211.177,373.041h97.967c4.611,0,8.348-3.736,8.348-8.348c0-4.611-3.736-8.348-8.348-8.348h-97.967
	c-4.611,0-8.348,3.736-8.348,8.348C202.829,369.304,206.566,373.041,211.177,373.041z"/>
<path d="M396.041,368.92c-16.927,0-30.699-13.772-30.699-30.699s13.772-30.699,30.699-30.699c16.927,0,30.699,13.772,30.699,30.699
	c0,3.595-0.627,7.125-1.829,10.445l-7.304-10.821c-1.407-11.379-11.117-20.222-22.872-20.222c-12.718,0-23.064,10.347-23.064,23.065
	c0,12.719,10.347,23.066,23.064,23.066c6.163,0,11.756-2.444,15.898-6.396l7.715,11.429c1.445,2.138,3.796,3.489,6.371,3.659
	c2.559,0.17,5.081-0.859,6.795-2.792c7.687-8.671,11.921-19.833,11.921-31.431c0-26.133-21.261-47.395-47.394-47.395
	s-47.395,21.261-47.395,47.395s21.261,47.395,47.395,47.395c4.611,0,8.348-3.736,8.348-8.348
	C404.388,372.658,400.652,368.92,396.041,368.92z M394.736,347.057c-3.512,0-6.369-2.857-6.369-6.37
	c0-3.513,2.856-6.369,6.369-6.369c3.509,0,6.364,2.852,6.369,6.36c0,0,0,0.014,0,0.022
	C401.099,344.206,398.245,347.057,394.736,347.057z"/>
<g>
</g>
<g>
</g>
<g>
</g>
<g>
</g>
<g>
</g>
<g>
</g>
<g>
</g>
<g>
</g>
<g>
</g>
<g>
</g>
<g>
</g>
<g>
</g>
<g>
</g>
<g>
</g>
<g>
</g>
</svg>
