<?xml version="1.0" encoding="iso-8859-1"?>
<!-- Generator: Adobe Illustrator 19.0.0, SVG Export Plug-In . SVG Version: 6.00 Build 0)  -->
<svg version="1.1" id="Layer_1" xmlns="http://www.w3.org/2000/svg" xmlns:xlink="http://www.w3.org/1999/xlink" x="0px" y="0px"
	 viewBox="0 0 512 512" style="enable-background:new 0 0 512 512;" xml:space="preserve">
<rect x="8.348" y="190.152" style="fill:#00ABE0;" width="495.304" height="301.023"/>
<rect x="8.348" y="255.554" style="fill:#099DD1;" width="495.304" height="29.454"/>
<rect x="8.348" y="190.152" style="fill:#EFEFEF;" width="495.304" height="65.406"/>
<path style="fill:#FF7258;" d="M464.373,231.2h-12.692c-4.61,0-8.348-3.736-8.348-8.348s3.738-8.348,8.348-8.348h12.692
	c4.61,0,8.348,3.736,8.348,8.348S468.983,231.2,464.373,231.2z"/>
<path style="fill:#FFDC65;" d="M419.295,231.2h-12.692c-4.61,0-8.348-3.736-8.348-8.348s3.738-8.348,8.348-8.348h12.692
	c4.61,0,8.348,3.736,8.348,8.348S423.905,231.2,419.295,231.2z"/>
<path style="fill:#72D54A;" d="M373.103,231.2h-12.692c-4.61,0-8.348-3.736-8.348-8.348s3.738-8.348,8.348-8.348h12.692
	c4.61,0,8.348,3.736,8.348,8.348S377.714,231.2,373.103,231.2z"/>
<ellipse style="fill:#EFEFEF;" cx="259.539" cy="38.01" rx="17.166" ry="17.19"/>
<path d="M503.652,181.801h-80.096l-78.825-78.291c-3.27-3.25-8.557-3.231-11.805,0.04c-3.249,3.27-3.231,8.557,0.04,11.805
	l66.898,66.445H269.216H121.112L244.211,58.413c4.271,3.223,9.581,5.139,15.33,5.139c5.947,0,11.421-2.052,15.764-5.481
	l36.244,36.011c1.628,1.618,3.757,2.426,5.884,2.426c2.145,0,4.29-0.821,5.921-2.464c3.249-3.27,3.232-8.557-0.038-11.805
	L284.43,43.605c0.403-1.801,0.623-3.67,0.623-5.59c0-14.081-11.445-25.538-25.514-25.538c-14.069,0-25.513,11.457-25.513,25.538
	c0,2.138,0.267,4.215,0.765,6.202L97.529,181.801H8.348c-4.61,0-8.348,3.736-8.348,8.348v65.407v235.619
	c0,4.611,3.738,8.348,8.348,8.348h370.29c4.61,0,8.348-3.736,8.348-8.348c0-4.611-3.738-8.348-8.348-8.348H16.696V263.903h252.521
	h226.088v218.923h-66.293c-4.61,0-8.348,3.736-8.348,8.348s3.738,8.348,8.348,8.348h74.641c4.61,0,8.348-3.736,8.348-8.348V255.555
	v-65.407C512,185.538,508.262,181.801,503.652,181.801z M259.541,29.171c4.863,0,8.819,3.966,8.819,8.842
	c0,4.769-3.878,8.842-8.819,8.842c-4.862,0-8.818-3.966-8.818-8.842S254.679,29.171,259.541,29.171z M16.696,247.207v-48.711
	h244.173v48.711L16.696,247.207L16.696,247.207z M277.564,247.207v-48.711h217.74v48.711L277.564,247.207L277.564,247.207z"/>
<path d="M175.884,214.504H47.525c-4.61,0-8.348,3.736-8.348,8.348s3.738,8.348,8.348,8.348h128.359c4.61,0,8.348-3.736,8.348-8.348
	S180.494,214.504,175.884,214.504z"/>
<path d="M200.501,316.855h-0.137c-4.088,0-7.495,3.27-7.495,7.494v80.403c0,4.089,3.407,7.495,7.495,7.495
	c4.224,0,7.631-3.407,7.631-7.495v-29.571h16.762c16.217,0,29.3-13.083,29.3-29.027c0-16.216-13.083-29.299-29.3-29.299H200.501z
	 M238.931,346.155c-0.137,7.631-6.269,13.9-14.172,13.9h-16.762v-28.073h16.762C232.663,331.981,238.795,338.25,238.931,346.155z"/>
<path d="M321.037,331.981c3.952,0,7.495-3.407,7.495-7.631s-3.544-7.494-7.495-7.494h-40.814c-0.273,0-0.273,0-0.273,0h-0.137
	c-4.224,0-7.495,3.27-7.495,7.494v80.403c0,4.089,3.27,7.495,7.495,7.495l0.137-0.136c0,0,0,0.136,0.273,0.136h40.814
	c3.952,0,7.495-3.407,7.495-7.495c0-4.224-3.544-7.631-7.495-7.631h-33.592v-25.075h16.17c4.088,0,7.495-3.407,7.495-7.631
	c0-3.951-3.407-7.494-7.495-7.494h-16.17v-24.939h33.592V331.981z"/>
<path d="M425.493,404.753v-79.176c0-3.952-3.407-7.359-7.495-7.359c-4.088,0-7.358,3.408-7.358,7.359v56.145l-44.018-60.916
	c-2.317-3.27-6.95-3.951-10.357-1.635c-2.044,1.499-3.134,3.952-2.997,6.269c0,0.137,0,0.137,0,0.137v79.176
	c0,4.089,3.27,7.495,7.495,7.495c3.952,0,7.359-3.407,7.359-7.495v-56.555l43.609,60.506c0.136,0.273,0.408,0.545,0.681,0.817
	c1.363,1.636,3.407,2.726,5.587,2.726C422.086,412.248,425.493,408.843,425.493,404.753z"/>
<path d="M72.113,363.189c0,26.697,21.72,48.417,48.417,48.417s48.417-21.72,48.417-48.417c0-26.697-21.72-48.417-48.417-48.417
	S72.113,336.491,72.113,363.189z M152.252,363.189c0,17.491-14.23,31.722-31.722,31.722s-31.722-14.23-31.722-31.722
	c0-17.491,14.23-31.722,31.722-31.722S152.252,345.697,152.252,363.189z"/>
<g>
</g>
<g>
</g>
<g>
</g>
<g>
</g>
<g>
</g>
<g>
</g>
<g>
</g>
<g>
</g>
<g>
</g>
<g>
</g>
<g>
</g>
<g>
</g>
<g>
</g>
<g>
</g>
<g>
</g>
</svg>
