<?xml version="1.0" encoding="iso-8859-1"?>
<!-- Generator: Adobe Illustrator 19.0.0, SVG Export Plug-In . SVG Version: 6.00 Build 0)  -->
<svg version="1.1" id="Layer_1" xmlns="http://www.w3.org/2000/svg" xmlns:xlink="http://www.w3.org/1999/xlink" x="0px" y="0px"
	 viewBox="0 0 512 512" style="enable-background:new 0 0 512 512;" xml:space="preserve">
<rect x="8.348" y="190.152" style="fill:#FF7258;" width="495.304" height="301.023"/>
<rect x="8.348" y="255.554" style="fill:#F95D48;" width="495.304" height="29.454"/>
<rect x="8.348" y="190.152" style="fill:#EFEFEF;" width="495.304" height="65.406"/>
<path style="fill:#FF7258;" d="M464.373,231.2h-12.692c-4.61,0-8.348-3.736-8.348-8.348s3.738-8.348,8.348-8.348h12.692
	c4.61,0,8.348,3.736,8.348,8.348S468.983,231.2,464.373,231.2z"/>
<path style="fill:#FFDC65;" d="M419.295,231.2h-12.692c-4.61,0-8.348-3.736-8.348-8.348s3.738-8.348,8.348-8.348h12.692
	c4.61,0,8.348,3.736,8.348,8.348S423.905,231.2,419.295,231.2z"/>
<path style="fill:#72D54A;" d="M373.103,231.2h-12.692c-4.61,0-8.348-3.736-8.348-8.348s3.738-8.348,8.348-8.348h12.692
	c4.61,0,8.348,3.736,8.348,8.348S377.714,231.2,373.103,231.2z"/>
<ellipse style="fill:#EFEFEF;" cx="259.539" cy="38.01" rx="17.166" ry="17.19"/>
<path d="M503.652,181.801h-80.096l-78.825-78.291c-3.271-3.25-8.557-3.231-11.805,0.04c-3.249,3.27-3.231,8.557,0.04,11.805
	l66.898,66.445H269.216H121.112L244.211,58.413c4.271,3.223,9.581,5.139,15.33,5.139c5.947,0,11.421-2.052,15.764-5.481
	l36.244,36.011c1.628,1.618,3.757,2.426,5.884,2.426c2.145,0,4.29-0.821,5.921-2.464c3.249-3.27,3.232-8.557-0.038-11.805
	L284.43,43.605c0.403-1.801,0.623-3.67,0.623-5.59c0-14.081-11.445-25.538-25.514-25.538c-14.069,0-25.513,11.457-25.513,25.538
	c0,2.138,0.267,4.215,0.765,6.202L97.529,181.801H8.348c-4.61,0-8.348,3.736-8.348,8.348v65.407v235.619
	c0,4.611,3.738,8.348,8.348,8.348h370.29c4.61,0,8.348-3.736,8.348-8.348c0-4.611-3.738-8.348-8.348-8.348H16.696V263.903h252.521
	h226.088v218.923h-66.293c-4.61,0-8.348,3.736-8.348,8.348s3.738,8.348,8.348,8.348h74.641c4.61,0,8.348-3.736,8.348-8.348V255.555
	v-65.407C512,185.538,508.262,181.801,503.652,181.801z M259.541,29.171c4.863,0,8.819,3.966,8.819,8.842
	c0,4.769-3.878,8.842-8.819,8.842c-4.862,0-8.818-3.966-8.818-8.842S254.679,29.171,259.541,29.171z M16.696,247.207v-48.711
	h244.173v48.711L16.696,247.207L16.696,247.207z M277.564,247.207v-48.711h217.74v48.711L277.564,247.207L277.564,247.207z"/>
<path d="M175.884,214.504H47.525c-4.61,0-8.348,3.736-8.348,8.348s3.738,8.348,8.348,8.348h128.359c4.61,0,8.348-3.736,8.348-8.348
	S180.494,214.504,175.884,214.504z"/>
<path d="M186.553,369.419c0,22.456,18.269,40.725,40.725,40.725s40.725-18.27,40.725-40.725c0-22.457-18.269-40.726-40.725-40.726
	S186.553,346.962,186.553,369.419z M251.309,369.419c0,13.25-10.78,24.029-24.029,24.029c-13.25,0-24.03-10.78-24.03-24.029
	s10.78-24.031,24.03-24.031C240.529,345.388,251.309,356.169,251.309,369.419z"/>
<path d="M84.236,345.388c5.547,0,10.758,1.834,15.065,5.307c3.591,2.896,8.845,2.33,11.738-1.26
	c2.893-3.591,2.328-8.845-1.261-11.738c-7.204-5.807-16.275-9.005-25.542-9.005c-22.456,0-40.725,18.27-40.725,40.726
	c0,22.456,18.269,40.725,40.725,40.725c12.308,0,23.826-5.481,31.602-15.036c2.909-3.575,2.37-8.834-1.205-11.744
	c-3.575-2.908-8.834-2.37-11.744,1.205c-4.591,5.642-11.389,8.879-18.651,8.879c-13.25,0-24.029-10.78-24.029-24.029
	S70.985,345.388,84.236,345.388z"/>
<path d="M309.087,346.159c5.957,0,10.989,3.897,10.989,8.51c0,4.611,3.738,8.348,8.348,8.348s8.348-3.736,8.348-8.348
	c0-13.897-12.419-25.206-27.685-25.206s-27.685,11.307-27.685,25.206c0,13.899,12.419,25.206,27.685,25.206
	c0.533,0,1.054-0.05,1.558-0.146c5.25,0.608,9.431,4.216,9.431,8.42c0,4.614-5.032,8.51-10.989,8.51s-10.989-3.897-10.989-8.51
	c0-4.611-3.738-8.348-8.348-8.348c-4.61,0-8.348,3.736-8.348,8.348c0,13.897,12.419,25.206,27.685,25.206
	s27.685-11.307,27.685-25.206c0-13.899-12.419-25.206-27.685-25.206c-0.533,0-1.054,0.05-1.558,0.146
	c-5.25-0.608-9.431-4.216-9.431-8.42C298.098,350.056,303.13,346.159,309.087,346.159z"/>
<path d="M140.452,328.692c-4.61,0-8.348,3.736-8.348,8.348v64.955c0,4.611,3.738,8.348,8.348,8.348h32.39
	c4.61,0,8.348-3.736,8.348-8.348c0-4.611-3.738-8.348-8.348-8.348h-24.042V337.04C148.799,332.429,145.063,328.692,140.452,328.692z
	"/>
<path d="M410.007,408.169c0.12,0.092,0.239,0.186,0.365,0.273c0.124,0.086,0.253,0.163,0.382,0.242
	c0.099,0.061,0.196,0.125,0.298,0.181c0.18,0.1,0.366,0.189,0.554,0.277c0.053,0.025,0.102,0.055,0.156,0.078
	c0.012,0.006,0.025,0.01,0.036,0.014c0.055,0.023,0.11,0.045,0.165,0.067c5.376,2.318,11.076,3.498,16.951,3.498
	c23.629,0,42.852-19.223,42.852-42.852c0-23.629-19.223-42.852-42.852-42.852c-5.868,0-11.568,1.181-16.948,3.502
	c-0.056,0.022-0.112,0.045-0.167,0.068c-0.011,0.004-0.023,0.009-0.035,0.014c-0.052,0.023-0.101,0.052-0.154,0.077
	c-0.189,0.088-0.376,0.177-0.558,0.278c-0.101,0.057-0.197,0.119-0.295,0.179c-0.129,0.079-0.259,0.157-0.385,0.244
	c-0.125,0.086-0.242,0.178-0.361,0.269c-0.092,0.071-0.185,0.139-0.274,0.215c-0.127,0.106-0.245,0.219-0.365,0.332
	c-0.076,0.071-0.152,0.141-0.225,0.216c-0.114,0.116-0.219,0.236-0.325,0.357c-0.072,0.083-0.147,0.165-0.216,0.252
	c-0.091,0.114-0.177,0.232-0.262,0.349c-0.076,0.105-0.151,0.208-0.223,0.316c-0.068,0.105-0.13,0.211-0.194,0.319
	c-0.077,0.129-0.152,0.257-0.221,0.391c-0.049,0.095-0.094,0.193-0.139,0.288c-0.07,0.149-0.14,0.297-0.201,0.451
	c-0.038,0.094-0.07,0.189-0.105,0.285c-0.057,0.156-0.112,0.313-0.159,0.473c-0.032,0.11-0.058,0.221-0.086,0.334
	c-0.037,0.146-0.075,0.292-0.103,0.441s-0.048,0.298-0.069,0.449c-0.016,0.115-0.036,0.227-0.047,0.344
	c-0.02,0.207-0.027,0.415-0.031,0.624c-0.001,0.057-0.009,0.112-0.009,0.169v0.063c0,0.022,0,0.043,0,0.065v62.984
	c0,0.023,0,0.047,0,0.071v0.06c0,0.055,0.007,0.108,0.008,0.162c0.004,0.211,0.011,0.422,0.032,0.631
	c0.011,0.115,0.03,0.226,0.046,0.339c0.021,0.151,0.04,0.303,0.069,0.453c0.029,0.148,0.066,0.292,0.102,0.436
	c0.028,0.114,0.053,0.227,0.087,0.338c0.047,0.158,0.102,0.313,0.158,0.466c0.036,0.098,0.068,0.196,0.107,0.293
	c0.06,0.15,0.129,0.296,0.198,0.442c0.047,0.1,0.092,0.2,0.144,0.298c0.068,0.13,0.142,0.256,0.217,0.382
	c0.065,0.11,0.129,0.22,0.199,0.327c0.069,0.106,0.144,0.208,0.218,0.311c0.087,0.12,0.173,0.239,0.266,0.355
	c0.068,0.085,0.14,0.165,0.211,0.246c0.107,0.124,0.215,0.246,0.329,0.363c0.071,0.072,0.146,0.14,0.219,0.21
	c0.121,0.115,0.242,0.228,0.37,0.336C409.826,408.032,409.917,408.1,410.007,408.169z M455.07,369.947
	c0,14.423-11.734,26.157-26.156,26.157c-1.853,0-3.676-0.194-5.46-0.574v-51.163c1.784-0.382,3.607-0.575,5.46-0.575
	C443.336,343.791,455.07,355.524,455.07,369.947z"/>
<path d="M388.577,346.159c4.61,0,8.348-3.736,8.348-8.348c0-4.611-3.738-8.348-8.348-8.348h-31.381c-4.61,0-8.348,3.736-8.348,8.348
	v67.196c0,4.611,3.738,8.348,8.348,8.348h31.381c4.61,0,8.348-3.736,8.348-8.348c0-4.611-3.738-8.348-8.348-8.348h-23.033v-16.903
	h12.385c4.61,0,8.348-3.736,8.348-8.348s-3.738-8.348-8.348-8.348h-12.385v-16.903h23.033V346.159z"/>
<g>
</g>
<g>
</g>
<g>
</g>
<g>
</g>
<g>
</g>
<g>
</g>
<g>
</g>
<g>
</g>
<g>
</g>
<g>
</g>
<g>
</g>
<g>
</g>
<g>
</g>
<g>
</g>
<g>
</g>
</svg>
